<mxfile host="65bd71144e">
    <diagram id="Dc6l-PB9OFrNAHzR99rI" name="第 1 页">
        <mxGraphModel dx="2311" dy="2355" grid="1" gridSize="10" guides="1" tooltips="1" connect="1" arrows="1" fold="1" page="1" pageScale="1" pageWidth="1200" pageHeight="1600" math="0" shadow="0">
            <root>
                <mxCell id="0"/>
                <mxCell id="1" parent="0"/>
                <mxCell id="3" value="p1 = new Person" style="text;html=1;align=center;verticalAlign=middle;resizable=0;points=[];autosize=1;strokeColor=none;fillColor=none;" parent="1" vertex="1">
                    <mxGeometry x="-145" y="-510" width="110" height="20" as="geometry"/>
                </mxCell>
                <mxCell id="4" value="p1对象" style="swimlane;startSize=40;" parent="1" vertex="1">
                    <mxGeometry x="-190" y="-470" width="200" height="110" as="geometry"/>
                </mxCell>
                <mxCell id="19" value="" style="endArrow=classic;html=1;" parent="4" target="12" edge="1">
                    <mxGeometry width="50" height="50" relative="1" as="geometry">
                        <mxPoint x="80" y="80" as="sourcePoint"/>
                        <mxPoint x="410" y="220" as="targetPoint"/>
                        <Array as="points">
                            <mxPoint x="340" y="190"/>
                        </Array>
                    </mxGeometry>
                </mxCell>
                <mxCell id="6" value="__prop__" style="text;html=1;align=center;verticalAlign=middle;resizable=0;points=[];autosize=1;strokeColor=none;fillColor=none;" parent="1" vertex="1">
                    <mxGeometry x="-185" y="-410" width="70" height="20" as="geometry"/>
                </mxCell>
                <mxCell id="7" value="new Person" style="text;html=1;align=center;verticalAlign=middle;resizable=0;points=[];autosize=1;strokeColor=none;fillColor=none;" parent="1" vertex="1">
                    <mxGeometry x="160" y="-510" width="80" height="20" as="geometry"/>
                </mxCell>
                <mxCell id="8" value="Person构造函数" style="swimlane;startSize=40;" parent="1" vertex="1">
                    <mxGeometry x="100" y="-470" width="200" height="110" as="geometry"/>
                </mxCell>
                <mxCell id="9" value="propotype" style="text;html=1;align=center;verticalAlign=middle;resizable=0;points=[];autosize=1;strokeColor=none;fillColor=none;" parent="1" vertex="1">
                    <mxGeometry x="105" y="-410" width="70" height="20" as="geometry"/>
                </mxCell>
                <mxCell id="10" value="Person函数的原型对象" style="text;html=1;align=center;verticalAlign=middle;resizable=0;points=[];autosize=1;strokeColor=none;fillColor=none;" parent="1" vertex="1">
                    <mxGeometry x="390" y="-510" width="140" height="20" as="geometry"/>
                </mxCell>
                <mxCell id="11" value="Person函数的原型对象" style="swimlane;startSize=40;" parent="1" vertex="1">
                    <mxGeometry x="360" y="-470" width="200" height="110" as="geometry"/>
                </mxCell>
                <mxCell id="18" value="" style="endArrow=classic;html=1;entryX=0.604;entryY=0.979;entryDx=0;entryDy=0;entryPerimeter=0;" parent="11" target="7" edge="1">
                    <mxGeometry width="50" height="50" relative="1" as="geometry">
                        <mxPoint x="60" y="70" as="sourcePoint"/>
                        <mxPoint x="110" y="20" as="targetPoint"/>
                    </mxGeometry>
                </mxCell>
                <mxCell id="24" value="__proto__" style="text;html=1;align=center;verticalAlign=middle;resizable=0;points=[];autosize=1;strokeColor=none;fillColor=none;" parent="11" vertex="1">
                    <mxGeometry x="115" y="60" width="70" height="20" as="geometry"/>
                </mxCell>
                <mxCell id="29" value="" style="endArrow=classic;html=1;" parent="11" edge="1">
                    <mxGeometry width="50" height="50" relative="1" as="geometry">
                        <mxPoint x="160" y="70" as="sourcePoint"/>
                        <mxPoint x="280" y="340" as="targetPoint"/>
                    </mxGeometry>
                </mxCell>
                <mxCell id="12" value="constructor" style="text;html=1;align=center;verticalAlign=middle;resizable=0;points=[];autosize=1;strokeColor=none;fillColor=none;" parent="1" vertex="1">
                    <mxGeometry x="365" y="-410" width="70" height="20" as="geometry"/>
                </mxCell>
                <mxCell id="17" value="" style="endArrow=classic;html=1;" parent="1" source="9" target="12" edge="1">
                    <mxGeometry width="50" height="50" relative="1" as="geometry">
                        <mxPoint x="160" y="-380" as="sourcePoint"/>
                        <mxPoint x="210" y="-430" as="targetPoint"/>
                    </mxGeometry>
                </mxCell>
                <mxCell id="20" value="Person函数的原型对象是由new Object创建出来的&amp;nbsp;" style="rounded=0;whiteSpace=wrap;html=1;" parent="1" vertex="1">
                    <mxGeometry x="630" y="-420" width="120" height="60" as="geometry"/>
                </mxCell>
                <mxCell id="21" value="new Object" style="text;html=1;align=center;verticalAlign=middle;resizable=0;points=[];autosize=1;strokeColor=none;fillColor=none;" parent="1" vertex="1">
                    <mxGeometry x="425" y="-230" width="80" height="20" as="geometry"/>
                </mxCell>
                <mxCell id="22" value="Object构造函数" style="swimlane;startSize=40;" parent="1" vertex="1">
                    <mxGeometry x="365" y="-190" width="200" height="110" as="geometry"/>
                </mxCell>
                <mxCell id="28" value="" style="endArrow=classic;html=1;" parent="22" target="27" edge="1">
                    <mxGeometry width="50" height="50" relative="1" as="geometry">
                        <mxPoint x="65" y="70" as="sourcePoint"/>
                        <mxPoint x="115" y="20" as="targetPoint"/>
                    </mxGeometry>
                </mxCell>
                <mxCell id="23" value="propotype" style="text;html=1;align=center;verticalAlign=middle;resizable=0;points=[];autosize=1;strokeColor=none;fillColor=none;" parent="1" vertex="1">
                    <mxGeometry x="370" y="-130" width="70" height="20" as="geometry"/>
                </mxCell>
                <mxCell id="25" value="Object函数的原型对象" style="text;html=1;align=center;verticalAlign=middle;resizable=0;points=[];autosize=1;strokeColor=none;fillColor=none;" parent="1" vertex="1">
                    <mxGeometry x="685" y="-230" width="130" height="20" as="geometry"/>
                </mxCell>
                <mxCell id="26" value="Object函数的原型对象" style="swimlane;startSize=40;" parent="1" vertex="1">
                    <mxGeometry x="650" y="-190" width="200" height="110" as="geometry"/>
                </mxCell>
                <mxCell id="27" value="constructor" style="text;html=1;align=center;verticalAlign=middle;resizable=0;points=[];autosize=1;strokeColor=none;fillColor=none;" parent="1" vertex="1">
                    <mxGeometry x="655" y="-130" width="70" height="20" as="geometry"/>
                </mxCell>
                <mxCell id="30" value="function Function" style="text;html=1;align=center;verticalAlign=middle;resizable=0;points=[];autosize=1;strokeColor=none;fillColor=none;" vertex="1" parent="1">
                    <mxGeometry x="405" y="-30" width="110" height="20" as="geometry"/>
                </mxCell>
                <mxCell id="31" value="Function构造函数" style="swimlane;startSize=40;" vertex="1" parent="1">
                    <mxGeometry x="360" y="10" width="200" height="110" as="geometry"/>
                </mxCell>
                <mxCell id="38" value="" style="endArrow=classic;html=1;entryX=-0.067;entryY=0.611;entryDx=0;entryDy=0;entryPerimeter=0;" edge="1" parent="31" target="36">
                    <mxGeometry width="50" height="50" relative="1" as="geometry">
                        <mxPoint x="70" y="70" as="sourcePoint"/>
                        <mxPoint x="120" y="20" as="targetPoint"/>
                    </mxGeometry>
                </mxCell>
                <mxCell id="33" value="propotype" style="text;html=1;align=center;verticalAlign=middle;resizable=0;points=[];autosize=1;strokeColor=none;fillColor=none;" vertex="1" parent="1">
                    <mxGeometry x="365" y="70" width="70" height="20" as="geometry"/>
                </mxCell>
                <mxCell id="34" value="function Function" style="text;html=1;align=center;verticalAlign=middle;resizable=0;points=[];autosize=1;strokeColor=none;fillColor=none;" vertex="1" parent="1">
                    <mxGeometry x="695" y="-30" width="110" height="20" as="geometry"/>
                </mxCell>
                <mxCell id="35" value="Function函数的原型对象" style="swimlane;startSize=40;" vertex="1" parent="1">
                    <mxGeometry x="650" y="10" width="200" height="110" as="geometry"/>
                </mxCell>
                <mxCell id="36" value="constructor" style="text;html=1;align=center;verticalAlign=middle;resizable=0;points=[];autosize=1;strokeColor=none;fillColor=none;" vertex="1" parent="1">
                    <mxGeometry x="655" y="70" width="70" height="20" as="geometry"/>
                </mxCell>
                <mxCell id="37" value="" style="endArrow=classic;html=1;entryX=-0.048;entryY=0.674;entryDx=0;entryDy=0;entryPerimeter=0;" edge="1" parent="1" source="9" target="33">
                    <mxGeometry width="50" height="50" relative="1" as="geometry">
                        <mxPoint x="140" y="-220" as="sourcePoint"/>
                        <mxPoint x="190" y="-270" as="targetPoint"/>
                    </mxGeometry>
                </mxCell>
                <mxCell id="39" value="__propo__" style="text;html=1;align=center;verticalAlign=middle;resizable=0;points=[];autosize=1;strokeColor=none;fillColor=none;" vertex="1" parent="1">
                    <mxGeometry x="645" y="90" width="70" height="20" as="geometry"/>
                </mxCell>
                <mxCell id="40" value="" style="endArrow=classic;html=1;entryX=-0.052;entryY=1.084;entryDx=0;entryDy=0;entryPerimeter=0;" edge="1" parent="1" target="27">
                    <mxGeometry width="50" height="50" relative="1" as="geometry">
                        <mxPoint x="700" y="105" as="sourcePoint"/>
                        <mxPoint x="750" y="55" as="targetPoint"/>
                    </mxGeometry>
                </mxCell>
                <mxCell id="46" value="&lt;ol&gt;&lt;li&gt;p1是Person的实例对象&lt;/li&gt;&lt;li&gt;obj是Object的实例对象&lt;/li&gt;&lt;li&gt;Object/Function都是Function的实例对象&lt;/li&gt;&lt;li&gt;原型对象从默认创建时，隐士原型豆是指向Object的显示原型&lt;/li&gt;&lt;li&gt;&lt;br&gt;&lt;/li&gt;&lt;/ol&gt;" style="text;strokeColor=none;fillColor=none;html=1;whiteSpace=wrap;verticalAlign=middle;overflow=hidden;" vertex="1" parent="1">
                    <mxGeometry x="-185" y="-300" width="340" height="190" as="geometry"/>
                </mxCell>
            </root>
        </mxGraphModel>
    </diagram>
</mxfile>